<?xml version="1.0" encoding="utf-8"?>
<!-- Generator: Adobe Illustrator 16.0.3, SVG Export Plug-In . SVG Version: 6.00 Build 0)  -->
<!DOCTYPE svg PUBLIC "-//W3C//DTD SVG 1.1//EN" "http://www.w3.org/Graphics/SVG/1.1/DTD/svg11.dtd">
<svg version="1.1" id="Слой_1" xmlns="http://www.w3.org/2000/svg" xmlns:xlink="http://www.w3.org/1999/xlink" x="0px" y="0px"
	 width="152.343px" height="26.1px" viewBox="0 0 152.343 26.1" enable-background="new 0 0 152.343 26.1" xml:space="preserve">
<g>
	<path fill="#0EA549" d="M0,0.584l14.719,12.441L0,25.468V0.584z"/>
	<path fill="#333333" d="M34.075,0.584V13.32c0,2.429,0.567,4.339,1.707,5.736c1.141,1.395,2.941,2.092,5.398,2.092
		c2.463,0,4.26-0.697,5.402-2.092c1.14-1.396,1.707-3.309,1.707-5.736V0.584h5.627v12.689c0,2.07-0.303,3.9-0.901,5.492
		c-0.599,1.59-1.446,2.924-2.54,4.006c-1.095,1.08-2.43,1.902-4.004,2.477c-1.578,0.568-3.339,0.854-5.291,0.854
		c-1.945,0-3.71-0.285-5.285-0.854c-1.574-0.574-2.91-1.396-4.004-2.477c-1.096-1.082-1.943-2.416-2.546-4.006
		c-0.599-1.592-0.897-3.42-0.897-5.492V0.584H34.075L34.075,0.584z M63.086,0.584l14.896,16.742V0.584h5.623v24.884h-5.365
		L63.311,8.683v16.785H57.78V0.584H63.086z M93.722,0.584v24.884h-5.627V0.584H93.722z M12.534,20.339
		c1.108,0,2.144-0.18,3.104-0.543c0.962-0.361,1.785-0.871,2.477-1.533c0.689-0.66,1.229-1.436,1.621-2.322
		c0.389-0.893,0.584-1.875,0.584-2.958c0-1.083-0.195-2.067-0.584-2.959c-0.394-0.888-0.932-1.662-1.621-2.324
		c-0.688-0.661-1.515-1.171-2.477-1.533c-0.96-0.362-1.994-0.541-3.104-0.541H8.579L2.614,0.585h9.92c1.707,0,3.365,0.299,4.973,0.9
		c1.604,0.599,3.039,1.438,4.298,2.518c1.259,1.083,2.263,2.386,3.015,3.916c0.752,1.534,1.123,3.229,1.123,5.088
		c0,1.86-0.371,3.555-1.123,5.083c-0.752,1.529-1.756,2.846-3.015,3.939s-2.694,1.941-4.298,2.543
		c-1.605,0.6-3.266,0.898-4.973,0.898h-9.92l6.07-5.131H12.534L12.534,20.339z M123.114,5.528l-3.643,3.638
		c-0.947-1.322-2.07-2.339-3.354-3.047c-1.307-0.72-2.947-1.082-4.93-1.082c-1.262,0-2.393,0.188-3.396,0.561
		c-1.006,0.374-1.867,0.911-2.59,1.611c-0.719,0.702-1.271,1.546-1.664,2.53c-0.392,0.983-0.584,2.087-0.584,3.308
		c0,1.195,0.201,2.285,0.608,3.271c0.404,0.984,0.97,1.824,1.687,2.525c0.723,0.701,1.584,1.246,2.59,1.637
		c1.006,0.385,2.121,0.58,3.352,0.58c1.979,0,3.621-0.359,4.928-1.08c1.308-0.721,2.438-1.754,3.396-3.105l4.365,2.521
		c-1.289,2.199-2.984,3.865-5.088,5.002c-2.096,1.133-4.603,1.701-7.512,1.701c-1.979,0-3.826-0.301-5.537-0.898
		c-1.709-0.6-3.185-1.465-4.422-2.59c-1.24-1.125-2.218-2.494-2.927-4.117c-0.711-1.621-1.065-3.434-1.065-5.447
		c0-2.007,0.361-3.82,1.092-5.439c0.727-1.624,1.713-2.994,2.971-4.118c1.252-1.126,2.729-1.99,4.424-2.589
		c1.693-0.601,3.516-0.9,5.467-0.9c2.91,0,5.416,0.569,7.517,1.702C120.504,2.624,121.94,3.901,123.114,5.528z M147.981,16.874
		c-0.961,1.352-2.094,2.385-3.398,3.105s-2.944,1.08-4.928,1.08c-1.129,0-2.168-0.164-3.111-0.492l11.396-11.401l3.644-3.638
		c-1.174-1.628-2.611-2.905-4.32-3.827C145.163,0.569,142.659,0,139.747,0c-1.951,0-3.773,0.3-5.469,0.9
		c-1.693,0.599-3.168,1.463-4.423,2.589c-1.254,1.124-2.243,2.498-2.971,4.118s-1.086,3.433-1.086,5.439
		c0,2.013,0.353,3.828,1.062,5.447c0.713,1.623,1.688,2.992,2.926,4.117c1.24,1.125,2.715,1.99,4.426,2.59
		c1.713,0.598,4.006,0.898,5.984,0.898c2.912,0,4.967-0.568,7.065-1.701c2.099-1.137,3.793-2.803,5.082-5.002L147.981,16.874z
		 M132.276,16.863l-0.248-0.545c-0.404-0.986-0.604-2.076-0.604-3.271c0-1.221,0.192-2.324,0.584-3.308
		c0.389-0.988,0.944-1.829,1.663-2.53c0.722-0.7,1.585-1.237,2.591-1.611c1.004-0.372,2.135-0.561,3.396-0.561
		c1.428,0,2.676,0.188,3.752,0.561L132.276,16.863z"/>
</g>
<g>
	<g>
		<g>
			<path display="none" fill="none" stroke="#FFFFFF" stroke-width="1.635" stroke-miterlimit="10" d="M0.396,132.81
				c-14.293,2.379-23.395-1.313-23.395-1.313s1.268-18.313,10.533-31.121c0,0,7.227-2.88,15.501,0
				C-0.157,115.63,0.396,132.81,0.396,132.81z"/>
		</g>
	</g>
</g>
</svg>
